<svg width="106" height="25" viewBox="0 0 106 25" fill="none" xmlns="http://www.w3.org/2000/svg">
<g filter="url(#filter0_d_0:42)">
<path d="M12.4 1C12.9523 1 13.4 1.44772 13.4 2V3.2C13.4 3.75228 12.9523 4.2 12.4 4.2H11C10.448 4.2 10.2 4.848 10.2 5.4V7.4H11.6C12.1523 7.4 12.6 7.84772 12.6 8.4V9.6C12.6 10.1523 12.1523 10.6 11.6 10.6H10.2V16C10.2 16.5523 9.75226 17 9.19998 17H7.99998C7.44769 17 6.99998 16.5523 6.99998 16V10.6H5.59997C5.04769 10.6 4.59998 10.1523 4.59998 9.6V8.4C4.59998 7.84772 5.04769 7.4 5.59998 7.4H6.99998V4.2C6.99998 2.43269 8.43266 1 10.2 1H12.4Z" fill="white"/>
<mask id="mask0_0:42" style="mask-type:alpha" maskUnits="userSpaceOnUse" x="4" y="1" width="10" height="16">
<path d="M12.4 1C12.9523 1 13.4 1.44772 13.4 2V3.2C13.4 3.75228 12.9523 4.2 12.4 4.2H11C10.448 4.2 10.2 4.848 10.2 5.4V7.4H11.6C12.1523 7.4 12.6 7.84772 12.6 8.4V9.6C12.6 10.1523 12.1523 10.6 11.6 10.6H10.2V16C10.2 16.5523 9.75226 17 9.19998 17H7.99998C7.44769 17 6.99998 16.5523 6.99998 16V10.6H5.59997C5.04769 10.6 4.59998 10.1523 4.59998 9.6V8.4C4.59998 7.84772 5.04769 7.4 5.59998 7.4H6.99998V4.2C6.99998 2.43269 8.43266 1 10.2 1H12.4Z" fill="white"/>
</mask>
<g mask="url(#mask0_0:42)">
</g>
<path fill-rule="evenodd" clip-rule="evenodd" d="M51.211 1.1148C52.5075 0.859886 53.6718 1.04481 54.6524 1.51807C54.7059 1.54387 54.7575 1.56989 54.8074 1.59601L55.7683 1.20715C56.7579 0.806656 57.8038 1.64433 57.6299 2.69698C58.1011 3.21467 58.1759 4.07967 57.539 4.64935L56.5535 5.53091C56.5656 6.61489 56.4169 7.58677 55.9604 8.6701C55.1466 10.6011 53.9797 12.0534 52.552 13.0636C51.5429 13.7776 50.4632 14.2309 49.3751 14.4749C48.6718 14.6326 48.0751 14.6818 47.6361 14.6708C46.296 14.686 45.0616 14.4025 43.9603 13.9204C43.305 13.6336 42.8236 13.3372 42.5343 13.1137C41.4884 12.3058 42.0838 10.6315 43.405 10.6654C43.6586 10.6719 43.8962 10.6682 44.1184 10.6553C43.6977 10.1565 43.4744 9.65494 43.3837 9.24222C43.3522 9.09888 43.3443 8.95683 43.3572 8.81967C43.2699 8.71434 43.1885 8.60505 43.1131 8.49199C42.5785 7.69082 42.4208 6.8672 42.4651 6.16395C42.4683 6.12058 42.4695 6.10431 42.471 6.08806L42.4748 6.05295C42.4988 5.84869 42.5644 5.66432 42.6608 5.50463C42.3777 4.60281 42.442 3.69596 42.7087 2.84216C42.7954 2.56446 42.8867 2.34727 42.9609 2.20151C43.4024 1.33306 44.5848 1.19211 45.2181 1.93243C46.2153 3.09808 47.2003 3.79114 48.1397 4.12697C48.2562 4.16864 48.3682 4.20364 48.4753 4.23265C48.7743 2.34515 50.0168 1.21625 51.211 1.1148ZM49.8098 5.83335C49.8098 5.83335 47.3376 6.40669 44.5788 3.18191C44.5788 3.18191 43.504 5.29592 45.3672 6.58562C45.3672 6.58562 44.7584 6.69314 44.2562 6.33507C44.2562 6.33507 44.0412 8.16219 46.2627 8.87876H45.0803C45.0803 8.87876 45.4031 10.3478 47.481 10.6702C47.481 10.6702 46.6212 11.8167 43.8263 11.745C43.8263 11.745 45.4031 12.9631 47.8038 12.9272C47.8038 12.9272 52.2462 13.1423 54.3602 8.12607C54.88 6.89247 54.826 5.72582 54.7901 5.15227L56.1516 3.9344L54.7901 4.18515C54.7901 4.18515 55.7217 3.5045 55.8295 2.85954L54.3245 3.46858C54.3245 3.46858 53.1959 2.44749 51.2789 2.85954C51.2787 2.85954 49.5234 3.21783 49.8098 5.83335Z" fill="white"/>
<mask id="mask1_0:42" style="mask-type:alpha" maskUnits="userSpaceOnUse" x="42" y="1" width="16" height="14">
<path fill-rule="evenodd" clip-rule="evenodd" d="M51.211 1.1148C52.5075 0.859886 53.6718 1.04481 54.6524 1.51807C54.7059 1.54387 54.7575 1.56989 54.8074 1.59601L55.7683 1.20715C56.7579 0.806656 57.8038 1.64433 57.6299 2.69698C58.1011 3.21467 58.1759 4.07967 57.539 4.64935L56.5535 5.53091C56.5656 6.61489 56.4169 7.58677 55.9604 8.6701C55.1466 10.6011 53.9797 12.0534 52.552 13.0636C51.5429 13.7776 50.4632 14.2309 49.3751 14.4749C48.6718 14.6326 48.0751 14.6818 47.6361 14.6708C46.296 14.686 45.0616 14.4025 43.9603 13.9204C43.305 13.6336 42.8236 13.3372 42.5343 13.1137C41.4884 12.3058 42.0838 10.6315 43.405 10.6654C43.6586 10.6719 43.8962 10.6682 44.1184 10.6553C43.6977 10.1565 43.4744 9.65494 43.3837 9.24222C43.3522 9.09888 43.3443 8.95683 43.3572 8.81967C43.2699 8.71434 43.1885 8.60505 43.1131 8.49199C42.5785 7.69082 42.4208 6.8672 42.4651 6.16395C42.4683 6.12058 42.4695 6.10431 42.471 6.08806L42.4748 6.05295C42.4988 5.84869 42.5644 5.66432 42.6608 5.50463C42.3777 4.60281 42.442 3.69596 42.7087 2.84216C42.7954 2.56446 42.8867 2.34727 42.9609 2.20151C43.4024 1.33306 44.5848 1.19211 45.2181 1.93243C46.2153 3.09808 47.2003 3.79114 48.1397 4.12697C48.2562 4.16864 48.3682 4.20364 48.4753 4.23265C48.7743 2.34515 50.0168 1.21625 51.211 1.1148ZM49.8098 5.83335C49.8098 5.83335 47.3376 6.40669 44.5788 3.18191C44.5788 3.18191 43.504 5.29592 45.3672 6.58562C45.3672 6.58562 44.7584 6.69314 44.2562 6.33507C44.2562 6.33507 44.0412 8.16219 46.2627 8.87876H45.0803C45.0803 8.87876 45.4031 10.3478 47.481 10.6702C47.481 10.6702 46.6212 11.8167 43.8263 11.745C43.8263 11.745 45.4031 12.9631 47.8038 12.9272C47.8038 12.9272 52.2462 13.1423 54.3602 8.12607C54.88 6.89247 54.826 5.72582 54.7901 5.15227L56.1516 3.9344L54.7901 4.18515C54.7901 4.18515 55.7217 3.5045 55.8295 2.85954L54.3245 3.46858C54.3245 3.46858 53.1959 2.44749 51.2789 2.85954C51.2787 2.85954 49.5234 3.21783 49.8098 5.83335Z" fill="white"/>
</mask>
<g mask="url(#mask1_0:42)">
</g>
<path fill-rule="evenodd" clip-rule="evenodd" d="M100.71 1.99494C99.871 1.12398 98.6774 0.672363 97.3226 0.672363H90.6774C87.871 0.672363 86 2.54333 86 5.34978V11.9627C86 13.3498 86.4516 14.5433 87.3548 15.4143C88.2258 16.253 89.3871 16.6724 90.7097 16.6724H97.2903C98.6774 16.6724 99.8387 16.2208 100.677 15.4143C101.548 14.5756 102 13.382 102 11.9949V5.34978C102 3.99494 101.548 2.83365 100.71 1.99494ZM98.2903 5.34978C98.807 5.34978 99.2258 4.93095 99.2258 4.4143C99.2258 3.89765 98.807 3.47881 98.2903 3.47881C97.7737 3.47881 97.3548 3.89765 97.3548 4.4143C97.3548 4.93095 97.7737 5.34978 98.2903 5.34978ZM94 4.51107C91.7419 4.51107 89.871 6.34978 89.871 8.64011C89.871 10.9304 91.7097 12.7691 94 12.7691C96.2903 12.7691 98.129 10.8982 98.129 8.64011C98.129 6.38204 96.2581 4.51107 94 4.51107ZM94 11.2853C92.5484 11.2853 91.3548 10.0917 91.3548 8.64011C91.3548 7.18849 92.5484 5.99494 94 5.99494C95.4516 5.99494 96.6452 7.18849 96.6452 8.64011C96.6452 10.0917 95.4516 11.2853 94 11.2853ZM99.6452 14.3498C100.226 13.8014 100.581 12.9949 100.581 11.9949V5.34978C100.581 4.4143 100.258 3.60785 99.7097 3.0272C99.129 2.44656 98.3226 2.15623 97.3548 2.15623H90.7097C89.7419 2.15623 88.9032 2.44656 88.3548 2.99494C87.7742 3.57559 87.4839 4.38204 87.4839 5.34978V11.9627C87.4839 12.9627 87.7742 13.7691 88.3548 14.3498C88.9355 14.8982 89.7419 15.1885 90.7097 15.1885H97.2903C98.2581 15.1885 99.0645 14.8982 99.6452 14.3498Z" fill="white"/>
<mask id="mask2_0:42" style="mask-type:alpha" maskUnits="userSpaceOnUse" x="86" y="0" width="16" height="17">
<path fill-rule="evenodd" clip-rule="evenodd" d="M100.71 1.99494C99.871 1.12398 98.6774 0.672363 97.3226 0.672363H90.6774C87.871 0.672363 86 2.54333 86 5.34978V11.9627C86 13.3498 86.4516 14.5433 87.3548 15.4143C88.2258 16.253 89.3871 16.6724 90.7097 16.6724H97.2903C98.6774 16.6724 99.8387 16.2208 100.677 15.4143C101.548 14.5756 102 13.382 102 11.9949V5.34978C102 3.99494 101.548 2.83365 100.71 1.99494ZM98.2903 5.34978C98.807 5.34978 99.2258 4.93095 99.2258 4.4143C99.2258 3.89765 98.807 3.47881 98.2903 3.47881C97.7737 3.47881 97.3548 3.89765 97.3548 4.4143C97.3548 4.93095 97.7737 5.34978 98.2903 5.34978ZM94 4.51107C91.7419 4.51107 89.871 6.34978 89.871 8.64011C89.871 10.9304 91.7097 12.7691 94 12.7691C96.2903 12.7691 98.129 10.8982 98.129 8.64011C98.129 6.38204 96.2581 4.51107 94 4.51107ZM94 11.2853C92.5484 11.2853 91.3548 10.0917 91.3548 8.64011C91.3548 7.18849 92.5484 5.99494 94 5.99494C95.4516 5.99494 96.6452 7.18849 96.6452 8.64011C96.6452 10.0917 95.4516 11.2853 94 11.2853ZM99.6452 14.3498C100.226 13.8014 100.581 12.9949 100.581 11.9949V5.34978C100.581 4.4143 100.258 3.60785 99.7097 3.0272C99.129 2.44656 98.3226 2.15623 97.3548 2.15623H90.7097C89.7419 2.15623 88.9032 2.44656 88.3548 2.99494C87.7742 3.57559 87.4839 4.38204 87.4839 5.34978V11.9627C87.4839 12.9627 87.7742 13.7691 88.3548 14.3498C88.9355 14.8982 89.7419 15.1885 90.7097 15.1885H97.2903C98.2581 15.1885 99.0645 14.8982 99.6452 14.3498Z" fill="white"/>
</mask>
<g mask="url(#mask2_0:42)">
</g>
</g>
<defs>
<filter id="filter0_d_0:42" x="0.599976" y="0.672363" width="105.4" height="24.3276" filterUnits="userSpaceOnUse" color-interpolation-filters="sRGB">
<feFlood flood-opacity="0" result="BackgroundImageFix"/>
<feColorMatrix in="SourceAlpha" type="matrix" values="0 0 0 0 0 0 0 0 0 0 0 0 0 0 0 0 0 0 127 0" result="hardAlpha"/>
<feOffset dy="4"/>
<feGaussianBlur stdDeviation="2"/>
<feComposite in2="hardAlpha" operator="out"/>
<feColorMatrix type="matrix" values="0 0 0 0 0 0 0 0 0 0 0 0 0 0 0 0 0 0 0.25 0"/>
<feBlend mode="normal" in2="BackgroundImageFix" result="effect1_dropShadow_0:42"/>
<feBlend mode="normal" in="SourceGraphic" in2="effect1_dropShadow_0:42" result="shape"/>
</filter>
</defs>
</svg>
